<svg xmlns="http://www.w3.org/2000/svg" width="1200" height="760" viewBox="0 0 1200 760" role="img" aria-labelledby="title desc">
  <title id="title">AwesomeWM stack diagram</title>
  <desc id="desc">Diagram showing hardware and kernel at the bottom, X11 and user-space daemons in the middle, AwesomeWM and rc.lua modules above that, and keypresses and widgets flowing through the stack.</desc>
  <defs>
    <linearGradient id="bg" x1="0" y1="0" x2="1" y2="1">
      <stop offset="0%" stop-color="#232323"/>
      <stop offset="100%" stop-color="#2f2f36"/>
    </linearGradient>
    <marker id="arrow" markerWidth="10" markerHeight="10" refX="8" refY="5" orient="auto">
      <path d="M0,0 L10,5 L0,10 z" fill="#c4a7ff"/>
    </marker>
    <style>
      .label { font: 700 26px 'Inter', 'Segoe UI', sans-serif; fill: #f5f5f5; }
      .sub { font: 400 18px 'Inter', 'Segoe UI', sans-serif; fill: #b0b0b0; }
      .mono { font: 600 18px 'JetBrains Mono', monospace; fill: #ddcdff; }
      .small { font: 400 16px 'Inter', 'Segoe UI', sans-serif; fill: #c8c8c8; }
      .layer { fill: rgba(255,255,255,0.04); stroke: #555555; stroke-width: 2; rx: 20; }
      .box { rx: 16; stroke-width: 2; }
      .accent { fill: rgba(196,167,255,0.16); stroke: #c4a7ff; }
      .blue { fill: rgba(7,173,248,0.12); stroke: #07adf8; }
      .green { fill: rgba(71,180,117,0.12); stroke: #47b475; }
      .red { fill: rgba(248,81,73,0.12); stroke: #f85149; }
      .arrow { stroke: #c4a7ff; stroke-width: 4; fill: none; marker-end: url(#arrow); }
      .hint { font: 600 15px 'JetBrains Mono', monospace; fill: #8bdcff; }
    </style>
  </defs>

  <rect width="1200" height="760" fill="url(#bg)"/>

  <text x="60" y="58" class="label">AwesomeWM Runtime Stack</text>
  <text x="60" y="88" class="sub">How keyboard events and widgets flow from hardware to rc.lua and back out to system tools.</text>

  <rect x="40" y="118" width="1120" height="120" class="layer"/>
  <text x="62" y="152" class="label">Hardware + Kernel</text>
  <text x="62" y="181" class="sub">Keyboard, GPU, display panel, HDMI output, audio devices, battery, Bluetooth, backlight drivers.</text>
  <rect x="62" y="196" width="330" height="28" class="box red"/>
  <text x="78" y="216" class="mono">Linux kernel drivers</text>
  <rect x="414" y="196" width="300" height="28" class="box red"/>
  <text x="430" y="216" class="mono">/sys, input, DRM, power</text>
  <rect x="736" y="196" width="394" height="28" class="box red"/>
  <text x="752" y="216" class="mono">PulseAudio / PipeWire / NetworkManager / BlueZ</text>

  <rect x="40" y="270" width="1120" height="140" class="layer"/>
  <text x="62" y="304" class="label">Display Server + User-Space Plumbing</text>
  <text x="62" y="333" class="sub">AwesomeWM talks to the X server; helper commands talk to user-space daemons and tools.</text>
  <rect x="62" y="348" width="240" height="38" class="box blue"/>
  <text x="78" y="373" class="mono">Xorg / X11</text>
  <rect x="326" y="348" width="248" height="38" class="box blue"/>
  <text x="342" y="373" class="mono">awesome v4.3</text>
  <rect x="598" y="348" width="240" height="38" class="box green"/>
  <text x="614" y="373" class="mono">xrandr, pactl, nmcli</text>
  <rect x="862" y="348" width="268" height="38" class="box green"/>
  <text x="878" y="373" class="mono">brightnessctl, flameshot, rofi</text>

  <rect x="40" y="442" width="1120" height="210" class="layer"/>
  <text x="62" y="476" class="label">Config Logic</text>
  <text x="62" y="505" class="sub">The Lua entrypoint sets up package paths, loads modules, creates widgets, and binds keys to callbacks.</text>

  <rect x="62" y="525" width="250" height="92" class="box accent"/>
  <text x="82" y="554" class="mono">rc.lua</text>
  <text x="82" y="582" class="small">Entry point</text>
  <text x="82" y="607" class="small">Loads libs, package.path, widgets, keys</text>

  <rect x="340" y="525" width="250" height="92" class="box accent"/>
  <text x="360" y="554" class="mono">common.lua</text>
  <text x="360" y="579" class="mono">brightness.lua</text>
  <text x="360" y="607" class="small">helpers + brightness backends</text>

  <rect x="618" y="525" width="250" height="92" class="box accent"/>
  <text x="638" y="554" class="mono">audio.lua</text>
  <text x="638" y="579" class="mono">widgets.lua</text>
  <text x="638" y="607" class="small">media control + status widgets</text>

  <rect x="896" y="525" width="234" height="92" class="box accent"/>
  <text x="916" y="554" class="mono">presenter.lua</text>
  <text x="916" y="579" class="mono">launchers.lua</text>
  <text x="916" y="607" class="small">workflow actions + app launchers</text>

  <path d="M182 386 L182 522" class="arrow"/>
  <path d="M450 386 L450 522" class="arrow"/>
  <path d="M718 386 L718 522" class="arrow"/>
  <path d="M980 386 L980 522" class="arrow"/>

  <path d="M450 617 L718 617" class="arrow"/>
  <path d="M718 617 L980 617" class="arrow"/>

  <text x="74" y="690" class="hint">Example flow:</text>
  <text x="190" y="690" class="small">Brightness key → X11 event → AwesomeWM keybinding → rc.lua alias → brightness.lua → xrandr / brightnessctl → display change + notification.</text>
  <text x="74" y="720" class="hint">Important boundary:</text>
  <text x="246" y="720" class="small">AwesomeWM does not talk directly to the kernel for windows; it coordinates with X11 and external user-space tools which then reach drivers/daemons.</text>
</svg>
